<svg width="400" height="250" viewBox="0 0 400 250" fill="none" xmlns="http://www.w3.org/2000/svg">
  <defs>
    <linearGradient id="project-bg" x1="0%" y1="0%" x2="100%" y2="100%">
      <stop offset="0%" style="stop-color:#6366f1;stop-opacity:1" />
      <stop offset="50%" style="stop-color:#8b5cf6;stop-opacity:1" />
      <stop offset="100%" style="stop-color:#14b8a6;stop-opacity:1" />
    </linearGradient>
    <linearGradient id="code-lines" x1="0%" y1="0%" x2="100%" y2="0%">
      <stop offset="0%" style="stop-color:rgba(255,255,255,0.8);stop-opacity:1" />
      <stop offset="100%" style="stop-color:rgba(255,255,255,0.3);stop-opacity:1" />
    </linearGradient>
  </defs>
  
  <!-- Background -->
  <rect width="400" height="250" fill="url(#project-bg)" rx="8"/>
  
  <!-- Code editor mockup -->
  <rect x="20" y="40" width="360" height="180" fill="rgba(255,255,255,0.1)" rx="4"/>
  
  <!-- Header bar -->
  <rect x="20" y="40" width="360" height="30" fill="rgba(255,255,255,0.2)" rx="4 4 0 0"/>
  <circle cx="35" cy="55" r="4" fill="rgba(255,100,100,0.8)"/>
  <circle cx="50" cy="55" r="4" fill="rgba(255,200,100,0.8)"/>
  <circle cx="65" cy="55" r="4" fill="rgba(100,255,100,0.8)"/>
  
  <!-- Code lines -->
  <rect x="30" y="85" width="120" height="4" fill="url(#code-lines)" rx="2"/>
  <rect x="30" y="100" width="200" height="4" fill="url(#code-lines)" rx="2"/>
  <rect x="40" y="115" width="150" height="4" fill="url(#code-lines)" rx="2"/>
  <rect x="40" y="130" width="180" height="4" fill="url(#code-lines)" rx="2"/>
  <rect x="30" y="145" width="90" height="4" fill="url(#code-lines)" rx="2"/>
  <rect x="30" y="160" width="160" height="4" fill="url(#code-lines)" rx="2"/>
  <rect x="40" y="175" width="140" height="4" fill="url(#code-lines)" rx="2"/>
  <rect x="30" y="190" width="110" height="4" fill="url(#code-lines)" rx="2"/>
  
  <!-- Browser window mockup -->
  <rect x="250" y="90" width="120" height="90" fill="rgba(255,255,255,0.15)" rx="4"/>
  <rect x="250" y="90" width="120" height="20" fill="rgba(255,255,255,0.25)" rx="4 4 0 0"/>
  <circle cx="260" cy="100" r="2" fill="rgba(255,100,100,0.8)"/>
  <circle cx="270" cy="100" r="2" fill="rgba(255,200,100,0.8)"/>
  <circle cx="280" cy="100" r="2" fill="rgba(100,255,100,0.8)"/>
  
  <!-- UI elements -->
  <rect x="260" y="120" width="80" height="8" fill="rgba(255,255,255,0.4)" rx="4"/>
  <rect x="260" y="135" width="60" height="6" fill="rgba(255,255,255,0.3)" rx="3"/>
  <rect x="260" y="148" width="100" height="6" fill="rgba(255,255,255,0.3)" rx="3"/>
  <rect x="260" y="161" width="70" height="6" fill="rgba(255,255,255,0.3)" rx="3"/>
  
  <!-- Floating elements -->
  <circle cx="350" cy="50" r="8" fill="rgba(255,255,255,0.2)">
    <animate attributeName="cy" values="50;45;50" dur="3s" repeatCount="indefinite"/>
  </circle>
  <rect x="45" y="25" width="12" height="12" fill="rgba(255,255,255,0.15)" rx="2" transform="rotate(45 51 31)">
    <animateTransform attributeName="transform" type="rotate" values="45 51 31;225 51 31;45 51 31" dur="4s" repeatCount="indefinite"/>
  </rect>
  
  <!-- Tech stack icons area -->
  <rect x="20" y="230" width="360" height="15" fill="rgba(255,255,255,0.1)" rx="2"/>
  <circle cx="35" cy="237" r="4" fill="rgba(255,255,255,0.6)"/>
  <circle cx="55" cy="237" r="4" fill="rgba(255,255,255,0.6)"/>
  <circle cx="75" cy="237" r="4" fill="rgba(255,255,255,0.6)"/>
  <circle cx="95" cy="237" r="4" fill="rgba(255,255,255,0.6)"/>
</svg>
